# xmcd
#
# Track frame offsets:
#	150
#	6445
#	28430
#	51172
#	73550
#	96557
#	117065
#	125957
#	152492
#	170387
#	191659
#	210550
#	226000
#	244812
#
# Disc length: 3295 seconds
#
# Revision: 4
# Processed by: cddbd v1.5PL3 Copyright (c) Steve Scherf et al.
# Submitted via: audiograbber 1.82.02
#
DISCID=c40cdd0e
DTITLE=Chico DeBarge - Long Time No See
DYEAR=1997
DGENRE=R&B
TTITLE0=Intro
TTITLE1=Love Still Good
TTITLE2=Iggin' Me
TTITLE3=Virgin
TTITLE4=No Guarantee
TTITLE5=Ms. Wonderful
TTITLE6=Was It Good
TTITLE7=Physical Train
TTITLE8=Trouble Man
TTITLE9=Love Jones
TTITLE10=Superman
TTITLE11=One Love
TTITLE12=Long Time No See
TTITLE13=Outro
EXTD=
EXTT0=
EXTT1=
EXTT2=
EXTT3=
EXTT4=
EXTT5=
EXTT6=
EXTT7=
EXTT8=
EXTT9=
EXTT10=
EXTT11=
EXTT12=
EXTT13=
PLAYORDER=
